<svg xmlns="http://www.w3.org/2000/svg" viewBox="0 0 48 48">
  <defs>
    <linearGradient id="sea" x1="0" y1="0" x2="0" y2="1">
      <stop offset="0%" stop-color="#08344C"/>
      <stop offset="55%" stop-color="#0E4A6B"/>
      <stop offset="100%" stop-color="#15618B"/>
    </linearGradient>
  </defs>
  <rect width="48" height="48" rx="10" fill="url(#sea)"/>
  <circle cx="35" cy="13" r="6.5" fill="#FFC94D"/>
  <path d="M0 30c6-4 12-4 18 0s12 4 18 0 12-4 12-4V48H0Z" fill="#F4E7C5"/>
  <path d="M0 34c6-3 12-3 18 0s12 3 18 0 12-3 12-3" stroke="#5FB8BF" stroke-width="2.2" fill="none" stroke-linecap="round"/>
  <path d="M0 39c6-3 12-3 18 0s12 3 18 0 12-3 12-3" stroke="#5FB8BF" stroke-width="2.2" fill="none" stroke-linecap="round" opacity=".6"/>
  <g stroke="#2F5D50" stroke-width="2.4" stroke-linecap="round" fill="none">
    <path d="M9 42c-.5-6-.5-11 1-16"/>
    <path d="M10 26c-3.5-4-6-5-9-4.5"/>
    <path d="M10 26c-1-5 0-8.5 3-11.5"/>
    <path d="M10 26c2.5-3.5 6-4.5 9-4"/>
    <path d="M10 26c-4-1-7 0-9.5 3"/>
    <path d="M10 26c3 2 6 2 9-.5"/>
  </g>
</svg>
